#Comment line ignore any data following # character 
#Hierarchical Translation and Rotation (.htr) file 
[Header]	
#Header keywords are followed by a single value 
FileType HTR		#Single word string
DataType HTRS		#Translation followed by rotation and scale data
FileVersion 1		#integer
NumSegments 84		#integer
NumFrames 2		#integer
DataFrameRate 30		#integer, data frame rate in this file
EulerRotationOrder ZYX
CalibrationUnits mm
RotationUnits Degrees
GlobalAxisofGravity Y
BoneLengthAxis Y
ScaleFactor 1.00
[SegmentNames&Hierarchy]
#CHILD	PARENT
MASTER GLOBAL
root MASTER
chest root
L_mid_tent01 root
R_mid_tent01 root
spine01 root
Bip01_Neck chest
L_humerus chest
R_humerus chest
weapon_bone chest
Bip01_Head Bip01_Neck
eye_left_bone Bip01_Head
eye_right_bone Bip01_Head
L_forearm L_humerus
L_front_hand L_forearm
L_weapon_bone L_forearm
L_front_hand01_01 L_front_hand
L_front_hand02_01 L_front_hand
L_front_hand03_01 L_front_hand
L_front_hand01_02 L_front_hand01_01
L_front_hand02_02 L_front_hand02_01
L_front_hand03_02 L_front_hand03_01
R_forearm R_humerus
R_front_hand R_forearm
R_weapon_bone R_forearm
R_front_hand01_01 R_front_hand
R_front_hand02_01 R_front_hand
R_front_hand03_01 R_front_hand
R_front_hand01_02 R_front_hand01_01
R_front_hand02_02 R_front_hand02_01
R_front_hand03_02 R_front_hand03_01
null_rope01_connect L_mid_tent01
Rope1_Seg01 null_rope01_connect
Rope1_Seg02 Rope1_Seg01
Rope1_Seg03 Rope1_Seg02
Rope1_Seg04 Rope1_Seg03
Rope1_Seg05 Rope1_Seg04
Rope1_Seg06 Rope1_Seg05
Rope1_Seg07 Rope1_Seg06
Rope1_Seg09 Rope1_Seg07
L_mid_hand01 Rope1_Seg09
L_mid_hand02 Rope1_Seg09
L_mid_hand03 Rope1_Seg09
null_rope02_connect R_mid_tent01
Rope2_Seg01 null_rope02_connect
Rope2_Seg02 Rope2_Seg01
Rope2_Seg03 Rope2_Seg02
Rope2_Seg04 Rope2_Seg03
Rope2_Seg05 Rope2_Seg04
Rope2_Seg06 Rope2_Seg05
Rope2_Seg07 Rope2_Seg06
Rope2_Seg09 Rope2_Seg07
R_mid_hand01 Rope2_Seg09
R_mid_hand02 Rope2_Seg09
R_mid_hand03 Rope2_Seg09
spine02 spine01
spine03 spine02
pelvis spine03
null_rope03_connect pelvis
null_rope04_connect pelvis
Rope3_Seg01 null_rope03_connect
Rope3_Seg02 Rope3_Seg01
Rope3_Seg03 Rope3_Seg02
Rope3_Seg04 Rope3_Seg03
Rope3_Seg05 Rope3_Seg04
Rope3_Seg06 Rope3_Seg05
Rope3_Seg07 Rope3_Seg06
Rope3_Seg08 Rope3_Seg07
Rope3_Seg09 Rope3_Seg08
R_rear_hand01 Rope3_Seg09
R_rear_hand02 Rope3_Seg09
R_rear_hand03 Rope3_Seg09
Rope4_Seg01 null_rope04_connect
Rope4_Seg02 Rope4_Seg01
Rope4_Seg03 Rope4_Seg02
Rope4_Seg04 Rope4_Seg03
Rope4_Seg05 Rope4_Seg04
Rope4_Seg06 Rope4_Seg05
Rope4_Seg07 Rope4_Seg06
Rope4_Seg08 Rope4_Seg07
Rope4_Seg09 Rope4_Seg08
L_rear_hand01 Rope4_Seg09
L_rear_hand02 Rope4_Seg09
L_rear_hand03 Rope4_Seg09
[BasePosition]
#SegmentName Tx, Ty, Tz, Rx, Ry, Rz, BoneLength
MASTER 0.000000 0.000000 0.000000 -90.000000 0.000000 0.000000 10.000000 
root 0.000000 0.000000 0.000000 0.000000 0.000000 0.000000 10.000000 
chest 0.000000 0.000000 0.000000 0.000000 0.000000 0.000000 10.000000 
L_mid_tent01 0.000000 0.000000 0.000000 0.000000 0.000000 0.000000 10.000000 
R_mid_tent01 0.000000 0.000000 0.000000 0.000000 0.000000 0.000000 10.000000 
spine01 0.000000 0.000000 0.000000 0.000000 0.000000 0.000000 10.000000 
Bip01_Neck 0.000000 0.000000 0.000000 0.000000 0.000000 0.000000 10.000000 
L_humerus 0.000000 0.000000 0.000000 0.000000 0.000000 0.000000 10.000000 
R_humerus 0.000000 0.000000 0.000000 0.000000 0.000000 0.000000 10.000000 
weapon_bone 0.000000 0.000000 0.000000 0.000000 0.000000 0.000000 10.000000 
Bip01_Head 0.000000 0.000000 0.000000 0.000000 0.000000 0.000000 10.000000 
eye_left_bone 0.000000 0.000000 0.000000 0.000000 0.000000 0.000000 10.000000 
eye_right_bone 0.000000 0.000000 0.000000 0.000000 0.000000 0.000000 10.000000 
L_forearm 0.000000 0.000000 0.000000 0.000000 0.000000 0.000000 10.000000 
L_front_hand 0.000000 0.000000 0.000000 0.000000 0.000000 0.000000 10.000000 
L_weapon_bone 0.000000 0.000000 0.000000 0.000000 0.000000 0.000000 10.000000 
L_front_hand01_01 0.000000 0.000000 0.000000 0.000000 0.000000 0.000000 10.000000 
L_front_hand02_01 0.000000 0.000000 0.000000 0.000000 0.000000 0.000000 10.000000 
L_front_hand03_01 0.000000 0.000000 0.000000 0.000000 0.000000 0.000000 10.000000 
L_front_hand01_02 0.000000 0.000000 0.000000 0.000000 0.000000 0.000000 10.000000 
L_front_hand02_02 0.000000 0.000000 0.000000 0.000000 0.000000 0.000000 10.000000 
L_front_hand03_02 0.000000 0.000000 0.000000 0.000000 0.000000 0.000000 10.000000 
R_forearm 0.000000 0.000000 0.000000 0.000000 0.000000 0.000000 10.000000 
R_front_hand 0.000000 0.000000 0.000000 0.000000 0.000000 0.000000 10.000000 
R_weapon_bone 0.000000 0.000000 0.000000 0.000000 0.000000 0.000000 10.000000 
R_front_hand01_01 0.000000 0.000000 0.000000 0.000000 0.000000 0.000000 10.000000 
R_front_hand02_01 0.000000 0.000000 0.000000 0.000000 0.000000 0.000000 10.000000 
R_front_hand03_01 0.000000 0.000000 0.000000 0.000000 0.000000 0.000000 10.000000 
R_front_hand01_02 0.000000 0.000000 0.000000 0.000000 0.000000 0.000000 10.000000 
R_front_hand02_02 0.000000 0.000000 0.000000 0.000000 0.000000 0.000000 10.000000 
R_front_hand03_02 0.000000 0.000000 0.000000 0.000000 0.000000 0.000000 10.000000 
null_rope01_connect 0.000000 0.000000 0.000000 0.000000 0.000000 0.000000 10.000000 
Rope1_Seg01 0.000000 0.000000 0.000000 0.000000 0.000000 0.000000 10.000000 
Rope1_Seg02 0.000000 0.000000 0.000000 0.000000 0.000000 0.000000 10.000000 
Rope1_Seg03 0.000000 0.000000 0.000000 0.000000 0.000000 0.000000 10.000000 
Rope1_Seg04 0.000000 0.000000 0.000000 0.000000 0.000000 0.000000 10.000000 
Rope1_Seg05 0.000000 0.000000 0.000000 0.000000 0.000000 0.000000 10.000000 
Rope1_Seg06 0.000000 0.000000 0.000000 0.000000 0.000000 0.000000 10.000000 
Rope1_Seg07 0.000000 0.000000 0.000000 0.000000 0.000000 0.000000 10.000000 
Rope1_Seg09 0.000000 0.000000 0.000000 0.000000 0.000000 0.000000 10.000000 
L_mid_hand01 0.000000 0.000000 0.000000 0.000000 0.000000 0.000000 10.000000 
L_mid_hand02 0.000000 0.000000 0.000000 0.000000 0.000000 0.000000 10.000000 
L_mid_hand03 0.000000 0.000000 0.000000 0.000000 0.000000 0.000000 10.000000 
null_rope02_connect 0.000000 0.000000 0.000000 0.000000 0.000000 0.000000 10.000000 
Rope2_Seg01 0.000000 0.000000 0.000000 0.000000 0.000000 0.000000 10.000000 
Rope2_Seg02 0.000000 0.000000 0.000000 0.000000 0.000000 0.000000 10.000000 
Rope2_Seg03 0.000000 0.000000 0.000000 0.000000 0.000000 0.000000 10.000000 
Rope2_Seg04 0.000000 0.000000 0.000000 0.000000 0.000000 0.000000 10.000000 
Rope2_Seg05 0.000000 0.000000 0.000000 0.000000 0.000000 0.000000 10.000000 
Rope2_Seg06 0.000000 0.000000 0.000000 0.000000 0.000000 0.000000 10.000000 
Rope2_Seg07 0.000000 0.000000 0.000000 0.000000 0.000000 0.000000 10.000000 
Rope2_Seg09 0.000000 0.000000 0.000000 0.000000 0.000000 0.000000 10.000000 
R_mid_hand01 0.000000 0.000000 0.000000 0.000000 0.000000 0.000000 10.000000 
R_mid_hand02 0.000000 0.000000 0.000000 0.000000 0.000000 0.000000 10.000000 
R_mid_hand03 0.000000 0.000000 0.000000 0.000000 0.000000 0.000000 10.000000 
spine02 0.000000 0.000000 0.000000 0.000000 0.000000 0.000000 10.000000 
spine03 0.000000 0.000000 0.000000 0.000000 0.000000 0.000000 10.000000 
pelvis 0.000000 0.000000 0.000000 0.000000 0.000000 0.000000 10.000000 
null_rope03_connect 0.000000 0.000000 0.000000 0.000000 0.000000 0.000000 10.000000 
null_rope04_connect 0.000000 0.000000 0.000000 0.000000 0.000000 0.000000 10.000000 
Rope3_Seg01 0.000000 0.000000 0.000000 0.000000 0.000000 0.000000 10.000000 
Rope3_Seg02 0.000000 0.000000 0.000000 0.000000 0.000000 0.000000 10.000000 
Rope3_Seg03 0.000000 0.000000 0.000000 0.000000 0.000000 0.000000 10.000000 
Rope3_Seg04 0.000000 0.000000 0.000000 0.000000 0.000000 0.000000 10.000000 
Rope3_Seg05 0.000000 0.000000 0.000000 0.000000 0.000000 0.000000 10.000000 
Rope3_Seg06 0.000000 0.000000 0.000000 0.000000 0.000000 0.000000 10.000000 
Rope3_Seg07 0.000000 0.000000 0.000000 0.000000 0.000000 0.000000 10.000000 
Rope3_Seg08 0.000000 0.000000 0.000000 0.000000 0.000000 0.000000 10.000000 
Rope3_Seg09 0.000000 0.000000 0.000000 0.000000 0.000000 0.000000 10.000000 
R_rear_hand01 0.000000 0.000000 0.000000 0.000000 0.000000 0.000000 10.000000 
R_rear_hand02 0.000000 0.000000 0.000000 0.000000 0.000000 0.000000 10.000000 
R_rear_hand03 0.000000 0.000000 0.000000 0.000000 0.000000 0.000000 10.000000 
Rope4_Seg01 0.000000 0.000000 0.000000 0.000000 0.000000 0.000000 10.000000 
Rope4_Seg02 0.000000 0.000000 0.000000 0.000000 0.000000 0.000000 10.000000 
Rope4_Seg03 0.000000 0.000000 0.000000 0.000000 0.000000 0.000000 10.000000 
Rope4_Seg04 0.000000 0.000000 0.000000 0.000000 0.000000 0.000000 10.000000 
Rope4_Seg05 0.000000 0.000000 0.000000 0.000000 0.000000 0.000000 10.000000 
Rope4_Seg06 0.000000 0.000000 0.000000 0.000000 0.000000 0.000000 10.000000 
Rope4_Seg07 0.000000 0.000000 0.000000 0.000000 0.000000 0.000000 10.000000 
Rope4_Seg08 0.000000 0.000000 0.000000 0.000000 0.000000 0.000000 10.000000 
Rope4_Seg09 0.000000 0.000000 0.000000 0.000000 0.000000 0.000000 10.000000 
L_rear_hand01 0.000000 0.000000 0.000000 0.000000 0.000000 0.000000 10.000000 
L_rear_hand02 0.000000 0.000000 0.000000 0.000000 0.000000 0.000000 10.000000 
L_rear_hand03 0.000000 0.000000 0.000000 0.000000 0.000000 0.000000 10.000000 
#Beginning of Data. Separated by tabs
#Fr	Tx	Ty	Tz	Rx	Ry	Rz	SF
[MASTER]
24 -121.234428 2275.254639 504.534058 0.001660 0.001660 0.001660 2333.674561
25 -119.512741 2281.968750 381.995911 0.001660 0.001660 0.001660 2316.804932
[root]
24 2.696667 444.669037 1104.892578 -96.235016 -37.029194 -86.953636 1191.018677
25 2.696667 444.669037 1131.420532 -95.631943 -37.014286 -87.181686 1215.668701
[chest]
24 -84.512650 -34.090519 0.000000 -9.863423 -24.375103 148.336349 91.129311
25 -84.512650 -34.090519 0.000000 -10.790558 -26.296059 148.536758 91.129311
[L_mid_tent01]
24 27.299162 22.179018 -249.918701 -0.295099 18.798582 79.931175 252.381683
25 27.299164 22.179014 -249.918701 -0.274863 19.358498 79.443237 252.381683
[R_mid_tent01]
24 23.228794 24.509907 226.238495 127.850327 -41.594578 67.644623 228.744751
25 23.228794 24.509907 226.238495 126.674492 -42.576817 67.659477 228.744751
[spine01]
24 -0.361383 -0.195265 0.000000 -0.000001 -0.000007 22.052340 0.410763
25 -0.361383 -0.195265 0.000000 -0.000001 -0.000007 22.052340 0.410763
[Bip01_Neck]
24 165.484543 71.581718 0.000119 176.643677 -1.657967 43.431911 180.302734
25 165.484543 71.581718 0.000119 176.643677 -1.657967 43.431911 180.302734
[L_humerus]
24 -13.983130 -135.272980 -120.471481 172.033844 6.864482 -90.641747 181.680161
25 -13.983130 -135.272980 -120.471481 172.145660 3.132349 -90.043716 181.680161
[R_humerus]
24 -13.983309 -135.273102 125.287651 -176.938461 0.339417 -85.629349 184.909012
25 -13.983309 -135.273102 125.287651 -176.994690 2.073910 -85.464661 184.909012
[weapon_bone]
24 235.964890 -300.705902 0.000000 0.000000 -89.951546 -128.212341 382.234833
25 235.964890 -300.705902 0.000000 0.000000 -89.951546 -128.212341 382.234833
[Bip01_Head]
24 213.403534 185.795029 10.252960 37.609653 15.448285 -42.769608 283.135986
25 213.413742 185.769928 10.626579 37.083313 15.289881 -42.903267 283.140991
[eye_left_bone]
24 -24.626970 125.451866 -64.772606 0.000000 -90.000000 -99.840431 143.318359
25 -24.626970 125.451866 -64.772606 0.000000 -90.000000 -99.840431 143.318359
[eye_right_bone]
24 -24.626970 125.451866 64.327362 0.000000 -89.965736 80.156380 143.117676
25 -24.626970 125.451866 64.327362 0.000000 -89.965736 80.156380 143.117676
[L_forearm]
24 322.776093 0.000000 -0.000119 0.000319 -0.002325 -105.624191 322.776093
25 322.776093 0.000000 -0.000119 0.000302 -0.002328 -104.783760 322.776093
[L_front_hand]
24 241.149185 -0.042021 -3.300071 -169.991150 -1.836366 -27.421520 241.171753
25 241.149185 -0.042021 -3.300071 162.983704 -1.835769 -27.421452 241.171753
[L_weapon_bone]
24 156.183838 0.000000 0.000000 0.000014 0.000007 0.000001 156.183838
25 156.183838 0.000000 0.000000 0.000014 0.000007 0.000001 156.183838
[L_front_hand01_01]
24 86.095154 20.947098 -0.655860 -0.315664 -0.507420 69.782669 88.609184
25 86.095154 20.947098 -0.655860 0.094671 -0.594282 28.709137 88.609184
[L_front_hand02_01]
24 86.935165 -11.437475 24.513514 146.441910 -57.112778 -52.037556 91.046425
25 86.935165 -11.437475 24.513514 120.181046 -25.839777 -14.570445 91.046425
[L_front_hand03_01]
24 86.637497 -14.123976 -20.424902 -146.504288 55.325115 -53.846027 90.126129
25 86.637497 -14.123976 -20.424902 -121.402008 24.440195 -16.845016 90.126129
[L_front_hand01_02]
24 71.020905 -0.000179 0.000030 0.000235 -0.002335 -101.481590 71.020905
25 71.020905 -0.000179 0.000030 0.000710 0.002237 -54.804821 71.020905
[L_front_hand02_02]
24 71.020927 -0.000119 0.000060 0.000235 -0.002335 -101.481590 71.020927
25 71.020927 -0.000119 0.000060 0.000710 0.002237 -54.804821 71.020927
[L_front_hand03_02]
24 71.020905 -0.000060 0.000060 0.000235 -0.002335 -101.481590 71.020905
25 71.020905 -0.000060 0.000060 0.000710 0.002237 -54.804821 71.020905
[R_forearm]
24 322.776428 -0.000060 0.000030 0.208771 0.049099 -104.621109 322.776428
25 322.776428 -0.000060 0.000030 0.209139 0.047510 -103.749840 322.776428
[R_front_hand]
24 238.847015 -0.006795 2.210259 134.985870 -10.645698 -26.315241 238.857239
25 238.847015 -0.006795 2.210259 173.263214 -10.645265 -26.314512 238.857239
[R_weapon_bone]
24 155.664093 0.002503 -0.000030 0.003487 0.001180 -90.988930 155.664078
25 155.664093 0.002503 -0.000030 0.003487 0.001180 -90.988930 155.664078
[R_front_hand01_01]
24 87.624611 14.231146 22.918642 -145.607407 -56.745121 51.154976 91.683487
25 87.624611 14.231146 22.918642 -120.949036 -28.372408 16.362209 91.683487
[R_front_hand02_01]
24 89.356956 14.367283 -19.491137 146.111923 55.123627 53.601898 92.579636
25 89.356956 14.367283 -19.491137 122.249840 27.199656 18.998110 92.579636
[R_front_hand03_01]
24 87.286232 -22.307278 -0.143439 0.112314 -0.437501 -69.367699 90.091743
25 87.286232 -22.307278 -0.143439 -0.176858 -0.419138 -31.887333 90.091743
[R_front_hand01_02]
24 71.020905 0.000060 0.000119 0.002333 -0.000255 102.457565 71.020905
25 71.020905 0.000060 0.000119 0.002241 0.000698 55.394287 71.020905
[R_front_hand02_02]
24 71.020844 -0.000030 -0.000119 0.002333 -0.000255 102.457565 71.020836
25 71.020844 -0.000030 -0.000119 0.002241 0.000698 55.394287 71.020836
[R_front_hand03_02]
24 71.020905 0.000000 0.000030 0.002333 -0.000255 102.457565 71.020905
25 71.020905 0.000000 0.000030 0.002241 0.000698 55.394287 71.020905
[null_rope01_connect]
24 328.732483 0.000000 -0.000238 -141.138443 -67.042099 -171.161240 328.732483
25 328.732483 0.000000 -0.000238 -140.042587 -66.973526 -171.829132 328.732483
[Rope1_Seg01]
24 0.000000 0.000000 0.000000 -17.907007 -5.679883 163.188873 0.000000
25 0.000000 0.000000 0.000000 -18.320009 -8.415801 158.426773 0.000000
[Rope1_Seg02]
24 139.999863 -0.000179 0.000000 4.250373 0.521505 15.919127 139.999863
25 139.999863 -0.000179 0.000000 5.630253 0.444521 22.216875 139.999863
[Rope1_Seg03]
24 139.999924 0.000060 -0.000060 14.702268 2.794132 25.657488 139.999924
25 139.999924 0.000060 -0.000060 20.382526 3.945003 30.878637 139.999924
[Rope1_Seg04]
24 139.999924 -0.000060 -0.000119 24.520037 8.838481 22.480101 139.999924
25 139.999924 -0.000060 -0.000119 21.376486 9.310782 17.627089 139.999924
[Rope1_Seg05]
24 139.999832 0.000119 -0.000060 19.277601 10.661749 13.013903 139.999832
25 139.999832 0.000119 -0.000060 16.600271 9.303213 11.257119 139.999832
[Rope1_Seg06]
24 139.999954 0.000119 -0.000060 23.723907 18.392252 14.205023 139.999954
25 139.999954 0.000119 -0.000060 23.961527 17.354837 14.636501 139.999954
[Rope1_Seg07]
24 139.999985 0.000060 0.000000 11.632146 17.808968 4.607838 139.999985
25 139.999985 0.000060 0.000000 12.005756 16.869745 4.895303 139.999985
[Rope1_Seg09]
24 121.602913 0.000119 -0.000089 -89.793175 -1.359789 0.847147 121.602913
25 121.602913 0.000119 -0.000089 -89.793175 -1.359789 0.847147 121.602913
[L_mid_hand01]
24 103.859421 1.038730 8.195221 130.544373 -67.584534 -38.866943 104.187431
25 103.859421 1.038730 8.195221 130.544373 -67.584534 -38.866943 104.187431
[L_mid_hand02]
24 105.572853 -4.139662 -10.864139 -168.923172 43.409309 -73.498886 106.211075
25 105.572853 -4.139662 -10.864139 -168.923172 43.409309 -73.498894 106.211075
[L_mid_hand03]
24 104.641464 17.579376 -3.913581 -6.012627 17.808174 74.893669 106.179977
25 104.641464 17.579376 -3.913581 -6.012625 17.808172 74.893669 106.179977
[null_rope02_connect]
24 328.732849 0.000179 -0.000119 -55.525009 25.176071 46.732315 328.732849
25 328.732849 0.000179 -0.000119 -55.373428 24.081451 45.601727 328.732849
[Rope2_Seg01]
24 0.000060 0.000065 0.000000 106.346558 -29.337715 27.480497 0.000088
25 0.000061 0.000061 0.000000 112.976196 -23.220114 -1.929095 0.000086
[Rope2_Seg02]
24 139.999741 -0.000060 -0.000119 -19.624872 -35.185715 -9.781836 139.999756
25 139.999741 -0.000060 -0.000119 -59.600109 -38.875149 -25.725752 139.999756
[Rope2_Seg03]
24 140.000107 0.000030 0.000000 -49.756123 -34.810165 -33.164478 140.000107
25 140.000107 0.000030 0.000000 -20.726877 3.238576 -24.817591 140.000107
[Rope2_Seg04]
24 139.999802 0.000000 -0.000060 -10.290134 -2.900541 -9.574445 139.999802
25 139.999802 0.000000 -0.000060 -0.842529 -1.086606 -0.692727 139.999802
[Rope2_Seg05]
24 139.999985 -0.000060 0.000119 -8.897304 -6.758542 -5.890526 139.999985
25 139.999985 -0.000060 0.000119 1.239047 -5.464993 4.177071 139.999985
[Rope2_Seg06]
24 139.999893 -0.000030 -0.000119 -10.278065 -2.913815 -9.080011 139.999893
25 139.999893 -0.000030 -0.000119 -0.451745 -4.360452 1.637294 139.999893
[Rope2_Seg07]
24 139.999893 0.000060 -0.000060 -4.000043 -0.507196 -3.935463 139.999893
25 139.999893 0.000060 -0.000060 -0.276606 -2.236950 0.823244 139.999893
[Rope2_Seg09]
24 121.338966 0.000089 -0.000060 33.793236 -1.359788 -0.847141 121.338966
25 121.338966 0.000089 -0.000060 33.793236 -1.359788 -0.847141 121.338966
[R_mid_hand01]
24 104.680779 11.144459 -10.335981 -21.077972 43.559654 63.514454 105.778534
25 104.680779 11.144459 -10.335981 -18.585447 44.487877 67.094727 105.778534
[R_mid_hand02]
24 104.070427 2.443552 8.231699 56.113041 -63.580791 31.561995 104.424065
25 104.070427 2.443552 8.231699 52.755104 -65.811348 35.278667 104.424065
[R_mid_hand03]
24 106.028137 -11.221827 -5.996406 -175.658295 15.220737 -71.161560 106.788818
25 106.028137 -11.221827 -5.996406 -176.406250 15.411086 -73.996964 106.788818
[spine02]
24 129.756927 0.001550 0.000119 0.482827 -4.031020 -14.725173 129.756927
25 129.756927 0.001550 0.000119 0.473035 -4.032232 -14.586387 129.756927
[spine03]
24 78.613968 0.081570 -4.899006 1.970259 3.795625 17.599558 78.766502
25 78.613960 0.081573 -4.899006 1.964159 3.798764 17.520529 78.766495
[pelvis]
24 169.435242 0.051022 0.000000 -0.068942 -0.178280 16.373295 169.435257
25 169.435242 0.051022 0.000000 -0.068685 -0.178378 16.208391 169.435257
[null_rope03_connect]
24 -1.257226 -2.466202 137.391083 -178.713730 -86.114449 -95.444344 137.418976
25 -1.257226 -2.466202 137.391083 179.191376 -86.587112 -93.263000 137.418976
[null_rope04_connect]
24 -1.259640 -2.480268 -137.844437 -178.713730 -86.114449 -95.444344 137.872513
25 -1.259640 -2.480268 -137.844437 179.191376 -86.587112 -93.263000 137.872513
[Rope3_Seg01]
24 -0.000030 -0.000192 0.000000 9.240473 -54.843956 -59.547749 0.000194
25 -0.000031 -0.000198 0.000000 12.980693 -46.880089 -64.997818 0.000201
[Rope3_Seg02]
24 139.999924 -0.000119 0.000060 -2.241257 -8.797596 19.545628 139.999924
25 139.999924 -0.000119 0.000060 -2.196305 -9.062476 19.480192 139.999924
[Rope3_Seg03]
24 139.999924 -0.000119 0.000119 -6.650289 -9.698137 20.771872 139.999924
25 139.999924 -0.000119 0.000119 -6.090201 -9.501274 19.812340 139.999924
[Rope3_Seg04]
24 139.999924 0.000119 0.000000 -6.855332 -7.847477 13.551856 139.999924
25 139.999924 0.000119 0.000000 -6.273889 -7.602915 13.048102 139.999924
[Rope3_Seg05]
24 139.999924 -0.000238 0.000060 -6.152317 -6.691813 9.619551 139.999924
25 139.999924 -0.000238 0.000060 -5.060016 -5.981530 8.447663 139.999924
[Rope3_Seg06]
24 139.999893 -0.000119 -0.000060 -6.007074 -6.727925 7.970884 139.999893
25 139.999893 -0.000119 -0.000060 -3.942780 -5.002772 5.961931 139.999893
[Rope3_Seg07]
24 139.999771 0.000060 -0.000119 -4.630117 -5.653198 5.430759 139.999771
25 139.999771 0.000060 -0.000119 -2.863047 -3.936186 4.100599 139.999771
[Rope3_Seg08]
24 139.999985 -0.000060 0.000000 -2.805782 -3.899677 3.206205 139.999985
25 139.999985 -0.000060 0.000000 -1.658835 -2.634129 2.489012 139.999985
[Rope3_Seg09]
24 90.185997 -0.000179 -0.000060 89.793228 -1.359877 -0.847183 90.185997
25 90.185997 -0.000179 -0.000060 89.793228 -1.359877 -0.847183 90.185997
[R_rear_hand01]
24 103.366196 -6.073594 -10.757982 -175.487595 24.273657 -68.532684 104.101845
25 103.366196 -6.073594 -10.757982 -176.652313 24.449368 -71.361511 104.101845
[R_rear_hand02]
24 100.509819 12.039542 -7.992327 -16.360678 35.627857 66.274040 101.543350
25 100.509819 12.039542 -7.992327 -14.552666 36.319756 69.354660 101.543350
[R_rear_hand03]
24 101.539970 5.215704 5.435467 75.232681 -67.112556 17.511589 101.819031
25 101.539970 5.215704 5.435467 73.490227 -69.598778 19.389940 101.819031
[Rope4_Seg01]
24 0.000010 0.000038 -0.000114 -13.064020 -65.981422 155.560974 0.000121
25 0.000010 0.000038 -0.000114 -13.778509 -64.096283 156.353333 0.000121
[Rope4_Seg02]
24 139.999985 0.000060 0.000119 -0.789950 3.168756 7.763577 139.999985
25 139.999985 0.000060 0.000119 -1.074658 3.412721 8.319524 139.999985
[Rope4_Seg03]
24 139.999924 0.000000 -0.000238 -2.132741 4.153016 10.750772 139.999924
25 139.999924 0.000000 -0.000238 -2.733460 4.400167 11.516122 139.999924
[Rope4_Seg04]
24 139.999985 0.000000 0.000119 -6.368510 0.073526 15.214332 139.999985
25 139.999985 0.000000 0.000119 -8.310971 -1.520158 16.668791 139.999985
[Rope4_Seg05]
24 139.999802 -0.000060 -0.000119 -7.788665 -2.292133 13.924815 139.999802
25 139.999802 -0.000060 -0.000119 -8.129874 -1.852771 13.757515 139.999802
[Rope4_Seg06]
24 139.999924 0.000000 0.000060 -5.649589 16.663734 16.803530 139.999924
25 139.999924 0.000000 0.000060 -5.067115 21.107866 17.628750 139.999924
[Rope4_Seg07]
24 139.999802 0.000000 0.000000 -86.779587 30.320313 28.475260 139.999802
25 139.999802 0.000000 0.000000 -126.635353 31.968428 27.510374 139.999802
[Rope4_Seg08]
24 139.999924 0.000000 0.000119 -41.731098 -11.186333 9.652177 139.999924
25 139.999924 0.000000 0.000119 -14.970404 -12.832991 0.434977 139.999924
[Rope4_Seg09]
24 90.185791 0.000060 0.000060 -135.617828 2.228885 0.850567 90.185791
25 90.185791 0.000060 0.000060 -135.617828 2.228885 0.850567 90.185791
[L_rear_hand01]
24 101.696655 -8.392275 -7.654577 -13.120160 -36.794415 108.245636 102.329041
25 101.696655 -8.392275 -7.654577 -12.874833 -36.868488 107.832779 102.329041
[L_rear_hand02]
24 102.726799 -1.568258 5.773216 71.814774 71.499886 158.834518 102.900848
25 102.726799 -1.568258 5.773216 71.484619 71.816628 158.486160 102.900848
[L_rear_hand03]
24 104.552910 9.721220 -10.420293 -177.558792 -24.551929 -106.459061 105.519653
25 104.552910 9.721220 -10.420293 -177.714203 -24.565960 -106.089035 105.519653
